:FULLY-SPECIFIED
:FORCE-ALL-JOINTS-BE-3DOF
:DEGREES
781
root 1.58928 16.3899 18.644 -9.74978 74.2743 344.247
lfemur -35.7024 10.7483 -13.0221
ltibia 49.8312 0 0
lfoot -21.6234 19.8855 0
ltoes 14.1916 0 0
rfemur -15.4955 -21.574 21.1565
rtibia 51.517 0 0
rfoot -17.5893 -30.9999 0
rtoes -26.0456 0 0
lowerback 1.13483 4.67013 -0.654949
upperback -0.811966 6.21225 -3.69498
thorax -1.12614 3.11541 -3.54514
lowerneck -5.38712 -6.48564 -0.537957
upperneck -2.20876 -8.55449 4.86403
head 0.457874 -4.20854 1.40632
lclavicle 1.74931e-14 -1.59028e-14 0
lhumerus -55.8578 -11.6232 94.9045
lradius 70.5819 0 0
lwrist 13.5493 0 0
lhand -21.8809 -4.63989 0
lfingers 7.12502 0 0
lthumb 4.5238 25.2918 0
rclavicle 1.74931e-14 -1.59028e-14 0
rhumerus -31.2742 48.0332 -113.074
rradius 80.002 0 0
rwrist 5.63508 0 0
rhand -24.1562 -20.2715 0
rfingers 7.12502 0 0
rthumb 2.32647 -770.239 0
782
root 1.5765 16.414 18.7254 -8.35924 71.507 345.675
lfemur -35.3056 8.4874 -12.2445
ltibia 49.7862 0 0
lfoot -21.6403 18.4561 0
ltoes 13.5318 0 0
rfemur -15.416 -20.7011 20.9947
rtibia 50.9725 0 0
rfoot -17.6923 -29.6306 0
rtoes -26.2415 0 0
lowerback 1.03964 4.6531 -0.368318
upperback -0.773635 6.1934 -3.57202
thorax -1.01826 3.10454 -3.56562
lowerneck -5.45156 -6.33727 -0.406015
upperneck -1.94144 -8.37757 4.64863
head 0.532427 -4.12065 1.31652
lclavicle 2.12479e-14 -1.18977e-14 0
lhumerus -55.9707 -11.56 94.9215
lradius 70.5792 0 0
lwrist 14.0033 0 0
lhand -22.1039 -4.27933 0
lfingers 7.12502 0 0
lthumb 4.3084 25.6562 0
rclavicle 2.12479e-14 -1.18977e-14 0
rhumerus -31.8339 47.921 -113.478
rradius 79.7782 0 0
rwrist 5.43679 0 0
rhand -24.1241 -20.4452 0
rfingers 7.12502 0 0
rthumb 2.35744 -770.412 0
783
root 1.56282 16.4397 18.8126 -6.87055 68.5444 347.203
lfemur -34.8808 6.0669 -11.4121
ltibia 49.738 0 0
lfoot -21.6585 16.9259 0
ltoes 12.8254 0 0
rfemur -15.3308 -19.7666 20.8215
rtibia 50.3896 0 0
rfoot -17.8025 -28.1646 0
rtoes -26.4513 0 0
lowerback 0.937738 4.63486 -0.0614545
upperback -0.732599 6.17322 -3.44037
thorax -0.902774 3.09291 -3.58754
lowerneck -5.52055 -6.17843 -0.26476
upperneck -1.65525 -8.18815 4.41803
head 0.612243 -4.02656 1.22039
lclavicle 2.52678e-14 -7.60979e-15 0
lhumerus -56.0915 -11.4924 94.9397
lradius 70.5763 0 0
lwrist 14.4894 0 0
lhand -22.3427 -3.89332 0
lfingers 7.12502 0 0
lthumb 4.07779 26.0464 0
rclavicle 2.52678e-14 -7.60979e-15 0
rhumerus -32.4331 47.8008 -113.91
rradius 79.5386 0 0
rwrist 5.2245 0 0
rhand -24.0898 -20.6312 0
rfingers 7.12502 0 0
rthumb 2.3906 -770.598 0
784
root 1.54868 16.4663 18.9026 -5.33278 65.4841 348.782
lfemur -34.4419 3.56661 -10.5522
ltibia 49.6882 0 0
lfoot -21.6772 15.3452 0
ltoes 12.0957 0 0
rfemur -15.2429 -18.8013 20.6425
rtibia 49.7874 0 0
rfoot -17.9164 -26.6502 0
rtoes -26.668 0 0
lowerback 0.832473 4.61602 0.255525
upperback -0.69021 6.15238 -3.30439
thorax -0.783477 3.08089 -3.61019
lowerneck -5.59181 -6.01435 -0.118848
upperneck -1.35963 -7.9925 4.17983
head 0.69469 -3.92936 1.12108
lclavicle 2.94202e-14 -3.18057e-15 0
lhumerus -56.2163 -11.4226 94.9585
lradius 70.5733 0 0
lwrist 14.9914 0 0
lhand -22.5894 -3.49458 0
lfingers 7.12502 0 0
lthumb 3.83958 26.4494 0
rclavicle 2.94202e-14 -3.18057e-15 0
rhumerus -33.0521 47.6767 -114.356
rradius 79.2911 0 0
rwrist 5.00521 0 0
rhand -24.0543 -20.8233 0
rfingers 7.12502 0 0
rthumb 2.42484 -770.79 0
785
root 1.53455 16.4929 18.9927 -3.795 62.4238 350.361
lfemur -34.0031 1.06631 -9.69232
ltibia 49.6385 0 0
lfoot -21.6959 13.7645 0
ltoes 11.366 0 0
rfemur -15.155 -17.8359 20.4636
rtibia 49.1852 0 0
rfoot -18.0302 -25.1359 0
rtoes -26.8847 0 0
lowerback 0.727208 4.59718 0.572506
upperback -0.647821 6.13154 -3.16841
thorax -0.664179 3.06887 -3.63284
lowerneck -5.66307 -5.85027 0.027064
upperneck -1.06401 -7.79684 3.94162
head 0.777137 -3.83217 1.02178
lclavicle 3.35725e-14 1.24865e-15 0
lhumerus -56.3411 -11.3527 94.9773
lradius 70.5702 0 0
lwrist 15.4935 0 0
lhand -22.8361 -3.09584 0
lfingers 7.12502 0 0
lthumb 3.60137 26.8525 0
rclavicle 3.35725e-14 1.24865e-15 0
rhumerus -33.671 47.5526 -114.803
rradius 79.0436 0 0
rwrist 4.78592 0 0
rhand -24.0189 -21.0153 0
rfingers 7.12502 0 0
rthumb 2.45909 -770.981 0
786
root 1.52087 16.5186 19.0799 -2.30631 59.4612 351.889
lfemur -33.5783 -1.35419 -8.85988
ltibia 49.5903 0 0
lfoot -21.7141 12.2343 0
ltoes 10.6596 0 0
rfemur -15.0698 -16.9014 20.2904
rtibia 48.6023 0 0
rfoot -18.1404 -23.6699 0
rtoes -27.0945 0 0
lowerback 0.625302 4.57894 0.879369
upperback -0.606785 6.11136 -3.03676
thorax -0.548689 3.05724 -3.65476
lowerneck -5.73206 -5.69143 0.168319
upperneck -0.777822 -7.60742 3.71102
head 0.856953 -3.73808 0.925644
lclavicle 3.75924e-14 5.53651e-15 0
lhumerus -56.4619 -11.2851 94.9955
lradius 70.5673 0 0
lwrist 15.9796 0 0
lhand -23.0749 -2.70983 0
lfingers 7.12502 0 0
lthumb 3.37076 27.2427 0
rclavicle 3.75924e-14 5.53651e-15 0
rhumerus -34.2702 47.4324 -115.235
rradius 78.804 0 0
rwrist 4.57363 0 0
rhand -23.9846 -21.2013 0
rfingers 7.12502 0 0
rthumb 2.49225 -771.167 0
787
root 1.50809 16.5427 19.1613 -0.915772 56.6939 353.317
lfemur -33.1815 -3.61509 -8.08232
ltibia 49.5453 0 0
lfoot -21.731 10.8049 0
ltoes 9.99974 0 0
rfemur -14.9903 -16.0285 20.1286
rtibia 48.0578 0 0
rfoot -18.2434 -22.3006 0
rtoes -27.2904 0 0
lowerback 0.530116 4.56191 1.166
upperback -0.568454 6.09251 -2.9138
thorax -0.440813 3.04637 -3.67524
lowerneck -5.7965 -5.54306 0.300261
upperneck -0.510504 -7.4305 3.49562
head 0.931506 -3.65019 0.835847
lclavicle 4.13472e-14 9.54166e-15 0
lhumerus -56.5748 -11.2219 95.0125
lradius 70.5646 0 0
lwrist 16.4336 0 0
lhand -23.2979 -2.34927 0
lfingers 7.12502 0 0
lthumb 3.15536 27.6071 0
rclavicle 4.13472e-14 9.54166e-15 0
rhumerus -34.8299 47.3202 -115.639
rradius 78.5802 0 0
rwrist 4.37534 0 0
rhand -23.9525 -21.375 0
rfingers 7.12502 0 0
rthumb 2.52322 -771.34 0
788
root 1.50555 16.5485 19.2535 -0.123079 54.2196 353.71
lfemur -34.0636 -4.1014 -7.91511
ltibia 50.1143 0 0
lfoot -21.5114 8.76374 0
ltoes 9.95673 0 0
rfemur -15.3015 -15.1103 20.1854
rtibia 47.6256 0 0
rfoot -18.7175 -21.4925 0
rtoes -26.7431 0 0
lowerback 0.219054 4.58128 1.28424
upperback -0.649674 6.11525 -2.81385
thorax -0.347552 3.05728 -3.61401
lowerneck -5.80446 -5.41579 0.36144
upperneck -0.544838 -7.26348 3.42302
head 0.914397 -3.56877 0.808395
lclavicle 3.67319e-14 7.53909e-15 0
lhumerus -56.5332 -10.9395 94.8137
lradius 70.3869 0 0
lwrist 16.9581 0 0
lhand -22.5961 -2.01126 0
lfingers 7.12502 0 0
lthumb 3.83295 27.9281 0
rclavicle 3.67319e-14 7.53909e-15 0
rhumerus -35.068 47.0898 -115.729
rradius 78.1862 0 0
rwrist 4.26562 0 0
rhand -23.8173 -21.8281 0
rfingers 7.12502 0 0
rthumb 2.6538 -771.791 0
789
root 1.50283 16.5547 19.3523 0.725569 51.5707 354.13
lfemur -35.008 -4.62205 -7.73609
ltibia 50.7235 0 0
lfoot -21.2764 6.57849 0
ltoes 9.91068 0 0
rfemur -15.6347 -14.1272 20.2462
rtibia 47.1629 0 0
rfoot -19.225 -20.6274 0
rtoes -26.1571 0 0
lowerback -0.113964 4.60202 1.41084
upperback -0.736627 6.1396 -2.70684
thorax -0.247708 3.06895 -3.54845
lowerneck -5.81298 -5.27954 0.426937
upperneck -0.581596 -7.08468 3.34529
head 0.896081 -3.4816 0.779005
lclavicle 3.17908e-14 5.39516e-15 0
lhumerus -56.4887 -10.6372 94.601
lradius 70.1967 0 0
lwrist 17.5196 0 0
lhand -21.8448 -1.6494 0
lfingers 7.12502 0 0
lthumb 4.55836 28.2718 0
rclavicle 3.17908e-14 5.39516e-15 0
rhumerus -35.3229 46.843 -115.824
rradius 77.7643 0 0
rwrist 4.14816 0 0
rhand -23.6725 -22.3131 0
rfingers 7.12502 0 0
rthumb 2.79359 -772.274 0
790
root 1.50002 16.5611 19.4543 1.60219 48.8344 354.564
lfemur -35.9835 -5.15985 -7.55117
ltibia 51.3528 0 0
lfoot -21.0336 4.32121 0
ltoes 9.86311 0 0
rfemur -15.9788 -13.1118 20.309
rtibia 46.6849 0 0
rfoot -19.7492 -19.7337 0
rtoes -25.5518 0 0
lowerback -0.457962 4.62344 1.5416
upperback -0.826447 6.16475 -2.59631
thorax -0.144573 3.08101 -3.48073
lowerneck -5.82178 -5.1388 0.494594
upperneck -0.619565 -6.89997 3.265
head 0.877161 -3.39155 0.748646
lclavicle 2.66868e-14 3.18056e-15 0
lhumerus -56.4427 -10.325 94.3811
lradius 70.0002 0 0
lwrist 18.0995 0 0
lhand -21.0687 -1.27561 0
lfingers 7.12502 0 0
lthumb 5.30769 28.6268 0
rclavicle 2.66868e-14 3.18056e-15 0
rhumerus -35.5862 46.5882 -115.923
rradius 77.3286 0 0
rwrist 4.02682 0 0
rhand -23.523 -22.8142 0
rfingers 7.12502 0 0
rthumb 2.93799 -772.774 0
